<svg xmlns="http://www.w3.org/2000/svg" viewBox="0 0 1024 1024" width="1024" height="1024">
  <defs>
    <linearGradient id="g" x1="0" y1="0" x2="1" y2="1">
      <stop offset="0%" stop-color="#16A34A"/>
      <stop offset="100%" stop-color="#22C55E"/>
    </linearGradient>
    <clipPath id="ios">
      <rect width="1024" height="1024" rx="230" ry="230"/>
    </clipPath>
  </defs>

  <g clip-path="url(#ios)">
    <rect width="1024" height="1024" rx="230" fill="#F5F1E8"/>

    <path d="M256 666 C435 384, 691 384, 742 538"
          stroke="url(#g)"
          stroke-width="62"
          fill="none"
          stroke-linecap="round"/>

    <g transform="translate(819, 486)">
      <path d="M0 -31 L10 -10 L31 0 L10 10 L0 31 L-10 10 L-31 0 L-10 -10 Z"
            fill="#16A34A"/>
    </g>

    <g transform="translate(880, 435)" opacity="0.85">
      <path d="M0 -20 L8 -8 L20 0 L8 8 L0 20 L-8 8 L-20 0 L-8 -8 Z"
            fill="#16A34A"/>
    </g>

    <g transform="translate(931, 399)" opacity="0.7">
      <path d="M0 -14 L5 -5 L14 0 L5 5 L0 14 L-5 5 L-14 0 L-5 -5 Z"
            fill="#16A34A"/>
    </g>
  </g>
</svg>
